<svg width="56" height="55" viewBox="0 0 56 55" fill="none" xmlns="http://www.w3.org/2000/svg">
<g id="Image [MuiBox-root]" clip-path="url(#clip0_5_49)">
<path id="Vector" d="M20.5891 14.4665V12.6553C20.8404 12.6758 21.0445 12.7219 21.3453 12.8659C21.5601 12.969 21.9436 13.2376 22.2208 12.7671C22.2648 12.6919 22.2981 12.6145 22.3175 12.535C22.4356 12.086 22.1735 11.8647 21.7213 11.6982C21.3563 11.5766 20.9738 11.5156 20.5891 11.5177V11.247C20.5891 11.0945 20.4 10.9871 20.2389 10.9871C20.0648 10.9871 19.8887 11.0934 19.8887 11.2449V11.5328C19.0894 11.6381 18.3923 11.9657 18.056 12.6908C17.8423 13.1527 17.8219 13.9057 18.0722 14.3687C18.4503 15.0723 19.1356 15.3226 19.8887 15.6094V17.658C19.3505 17.5935 19.0937 17.3873 18.5706 16.9941C18.3149 16.8018 18.0646 16.8749 17.8766 17.1391C17.6425 17.4668 17.6586 17.7611 17.8713 18.0479C18.272 18.5883 19.1442 18.8783 19.8887 18.8783V19.1683C19.8887 19.3241 20.0681 19.4294 20.2389 19.4294C20.3978 19.4294 20.5891 19.3241 20.5891 19.1716V18.8525C21.1648 18.7634 21.6343 18.5356 21.9941 18.1682C22.354 17.8009 22.5345 17.3013 22.5345 16.6697C22.5345 15.3753 21.6837 14.865 20.5891 14.4676V14.4665ZM19.9714 14.2409C19.3451 13.9906 19.1474 13.7897 19.1474 13.4062C19.1474 12.9583 19.5277 12.7563 19.9714 12.6865V14.2409ZM20.5063 17.6483V15.8554C21.1476 16.1358 21.2787 16.442 21.2787 16.8029C21.2787 17.2831 20.9597 17.5506 20.5063 17.6472V17.6483ZM34.3186 2.88962C30.4805 2.88962 27.3577 6.0113 27.3577 9.85056C27.3577 13.6898 30.4805 16.8104 34.3186 16.8104C38.1568 16.8104 41.2796 13.6877 41.2796 9.84949C41.2796 6.0113 38.1568 2.88855 34.3186 2.88855V2.88962ZM34.3186 15.1991C31.3688 15.1991 28.969 12.7993 28.969 9.84949C28.969 6.89968 31.3688 4.49988 34.3186 4.49988C37.2684 4.49988 39.6682 6.89968 39.6682 9.84949C39.6668 11.2679 39.1028 12.6277 38.0998 13.6307C37.0969 14.6336 35.737 15.1977 34.3186 15.1991Z" fill="black"/>
<path id="Vector_2" d="M34.7666 9.18455V7.37126C35.1673 7.40349 35.3746 7.50447 35.7656 7.69998C35.9848 7.81062 36.2383 7.75584 36.3994 7.48298C36.5616 7.20476 36.596 6.86853 36.3468 6.66228C35.9536 6.33464 35.2747 6.23259 34.7677 6.23259V5.96296C34.7677 5.80935 34.5776 5.703 34.4164 5.703C34.2424 5.703 34.0673 5.80935 34.0673 5.96082V6.24871C33.8063 6.28308 33.556 6.34539 33.3154 6.43347C32.5527 6.71707 32.0693 7.33152 32.0693 8.25642C32.0693 9.49499 32.9641 9.90427 34.0673 10.3254V12.3739C33.528 12.3094 33.2724 12.1032 32.7492 11.71C32.4925 11.5177 32.2422 11.5908 32.0542 11.8551C31.8211 12.1827 31.8362 12.476 32.0488 12.7628C32.4485 13.302 33.31 13.5942 34.0673 13.5942V13.8843C34.0673 14.04 34.2456 14.1442 34.4164 14.1442C34.5754 14.1442 34.7666 14.04 34.7666 13.8864V13.5684C35.8043 13.4073 36.712 12.752 36.712 11.3856C36.712 10.1309 35.9203 9.60242 34.7677 9.18347L34.7666 9.18455ZM34.1489 8.95681C33.5238 8.70759 33.3261 8.50564 33.3261 8.12322C33.3261 7.67419 33.7053 7.47332 34.1489 7.40349V8.95681ZM34.685 12.3642V10.5735C35.3252 10.8539 35.4563 11.16 35.4563 11.5199C35.4563 12.0011 35.1383 12.2686 34.685 12.3642Z" fill="black"/>
<path id="Vector_3" d="M50.6113 36.3709C50.825 36.3709 51.0299 36.286 51.181 36.1349C51.3321 35.9838 51.417 35.7789 51.417 35.5652V22.4404C51.417 21.2856 50.4781 20.3457 49.3223 20.3457H28.4953C28.8783 19.7328 29.1928 19.0797 29.4331 18.3981C30.9204 19.252 32.6058 19.7002 34.3208 19.6979C39.751 19.6979 44.1703 15.2797 44.1703 9.84841C44.1703 4.41716 39.751 -0.00109863 34.3197 -0.00109863C30.0336 -0.00109863 26.3802 2.75105 25.0288 6.57957C23.5418 5.72541 21.856 5.27786 20.1411 5.28191C14.7109 5.28191 10.2927 9.70017 10.2927 15.1325C10.2924 16.9761 10.8105 18.7826 11.788 20.3457H6.31055C5.75517 20.3462 5.22269 20.5671 4.82998 20.9598C4.43727 21.3526 4.21639 21.885 4.21582 22.4404V52.9053C4.21582 54.06 5.15576 55 6.31055 55H25.9365C26.1502 55 26.3551 54.9151 26.5062 54.764C26.6573 54.6129 26.7422 54.408 26.7422 54.1943C26.7422 53.9806 26.6573 53.7757 26.5062 53.6246C26.3551 53.4735 26.1502 53.3886 25.9365 53.3886H6.31055C6.18286 53.387 6.06087 53.3355 5.97058 53.2452C5.88028 53.1549 5.82882 53.0329 5.82715 52.9053V22.4404C5.82715 22.1794 6.04951 21.957 6.31055 21.957H49.3244C49.5854 21.957 49.8078 22.1794 49.8078 22.4404V31.4069H37.0912C33.6365 31.4069 30.8253 34.2181 30.8253 37.6728C30.8253 41.1275 33.6365 43.9398 37.0912 43.9398H49.8067V52.9053C49.8067 53.1674 49.5854 53.3886 49.3233 53.3886H29.6963C29.4826 53.3886 29.2777 53.4735 29.1266 53.6246C28.9755 53.7757 28.8906 53.9806 28.8906 54.1943C28.8906 54.408 28.9755 54.6129 29.1266 54.764C29.2777 54.9151 29.4826 55 29.6963 55H49.3223C50.4771 55 51.417 54.06 51.417 52.9053V39.325C51.417 39.1113 51.3321 38.9064 51.181 38.7553C51.0299 38.6042 50.825 38.5193 50.6113 38.5193C50.3977 38.5193 50.1927 38.6042 50.0416 38.7553C49.8905 38.9064 49.8057 39.1113 49.8057 39.325V42.3285H37.0912C34.5238 42.3285 32.4366 40.2402 32.4366 37.6728C32.4366 35.1054 34.5249 33.0182 37.0912 33.0182H49.8067V35.5641C49.8067 35.7778 49.8916 35.9827 50.0427 36.1338C50.1938 36.2849 50.3987 36.3698 50.6124 36.3698L50.6113 36.3709ZM13.7656 20.3457C12.5612 18.8754 11.9033 17.0332 11.904 15.1325C11.904 10.5907 15.5993 6.89431 20.1422 6.89431C21.7428 6.89431 23.2768 7.34763 24.6077 8.21023C24.5259 8.696 24.4807 9.18722 24.4724 9.67976C23.2417 8.7006 21.7148 8.16879 20.1422 8.17156C18.2966 8.17355 16.5273 8.90757 15.2223 10.2126C13.9173 11.5176 13.1832 13.2869 13.1813 15.1325C13.184 16.1188 13.3957 17.0932 13.8023 17.9918C14.2089 18.8903 14.8012 19.6926 15.5402 20.3457H13.7656ZM21.341 20.3457H18.9434C17.7658 20.0706 16.7155 19.4063 15.9622 18.4602C15.209 17.5142 14.7969 16.3418 14.7926 15.1325C14.794 13.7141 15.3581 12.3543 16.361 11.3513C17.364 10.3484 18.7238 9.78431 20.1422 9.78289C22.195 9.78289 24.3316 11.0634 24.9869 13.0002C25.2641 13.8187 25.4918 13.9992 25.4918 15.1325C25.4918 17.615 23.7516 19.7946 21.341 20.3468V20.3457ZM26.5187 20.3457H24.7441C25.9039 19.3179 26.6907 17.935 26.9817 16.413C27.3108 16.7831 27.6674 17.1278 28.0484 17.4442C27.7381 18.5044 27.218 19.4915 26.5187 20.3468V20.3457ZM26.0815 9.85056C26.0815 5.33025 29.7607 1.6113 34.3208 1.6113C38.8626 1.6113 42.5579 5.30662 42.5579 9.85056C42.5579 14.3945 38.8626 18.0877 34.3197 18.0877C29.7511 18.0877 26.0815 14.3623 26.0815 9.84949V9.85056Z" fill="black"/>
<path id="Vector_4" d="M40.113 34.8584H37.3146C35.7312 34.8584 34.4432 36.1475 34.4432 37.7298C34.4432 39.3121 35.7312 40.6012 37.3146 40.6012H40.113C41.6964 40.6012 42.9844 39.3132 42.9844 37.7298C42.9844 36.1464 41.6953 34.8584 40.113 34.8584ZM40.113 38.9898H37.3146C36.9805 38.9896 36.6602 38.8567 36.4239 38.6205C36.1877 38.3842 36.0548 38.0639 36.0546 37.7298C36.0546 37.0358 36.6196 36.4697 37.3146 36.4697H40.113C40.8069 36.4697 41.3719 37.0358 41.3719 37.7298C41.3719 38.4237 40.8069 38.9898 40.113 38.9898Z" fill="black"/>
</g>
<defs>
<clipPath id="clip0_5_49">
<rect width="55" height="55" fill="white" transform="translate(0.316406)"/>
</clipPath>
</defs>
</svg>
