<svg width="56" height="55" viewBox="0 0 56 55" fill="none" xmlns="http://www.w3.org/2000/svg">
<g id="Image [MuiBox-root]" clip-path="url(#clip0_5_39)">
<path id="Vector" d="M28.4852 15.5369C21.8896 15.5369 16.5232 20.9032 16.5232 27.4989C16.5232 34.0945 21.8896 39.462 28.4852 39.462C35.0808 39.462 40.4483 34.0956 40.4483 27.4989C40.4483 20.9021 35.082 15.5369 28.4852 15.5369ZM36.5045 21.1756L33.2404 24.4397C32.8023 23.7611 32.225 23.1834 31.5467 22.7448L34.8107 19.4819C35.4393 19.9787 36.0077 20.5471 36.5045 21.1756ZM38.7022 27.4989C38.7022 27.9051 38.6778 28.3044 38.6324 28.6978H34.0145C34.1856 27.9085 34.1856 27.0916 34.0145 26.3022H38.6312C38.6778 26.6945 38.7011 27.0938 38.7011 27.4989H38.7022ZM28.4852 31.4101C26.3293 31.4101 24.5739 29.6559 24.5739 27.4989C24.5739 25.3418 26.3282 23.5876 28.4852 23.5876C30.6422 23.5876 32.3965 25.3418 32.3965 27.4989C32.3965 29.6559 30.6422 31.4101 28.4852 31.4101ZM18.2693 27.4989C18.2693 27.0938 18.2937 26.6956 18.3391 26.3022H22.957C22.7859 27.0916 22.7859 27.9085 22.957 28.6978H18.3403C18.2937 28.3044 18.2693 27.9051 18.2693 27.4989ZM18.7023 24.5561C18.8998 23.9007 19.1631 23.2669 19.4881 22.6645L21.3785 24.5561H18.7012H18.7023ZM21.3797 30.4439L19.4881 32.3344C19.1632 31.7323 18.8999 31.099 18.7023 30.4439H21.3797ZM38.2692 30.4439C38.0716 31.099 37.8084 31.7323 37.4834 32.3344L35.593 30.4439H38.2692ZM35.593 24.5561L37.4834 22.6656C37.8084 23.2677 38.0717 23.9011 38.2692 24.5561H35.593ZM31.4303 20.3922V17.7172C32.0853 17.9147 32.7187 18.178 33.3207 18.5029L31.4303 20.3934V20.3922ZM29.6842 17.354V21.9707C28.8948 21.7996 28.0779 21.7996 27.2885 21.9707V17.354C28.0843 17.2605 28.8884 17.2605 29.6842 17.354ZM25.5424 20.3922L23.6508 18.5018C24.2532 18.1767 24.887 17.9135 25.5424 17.716V20.3934V20.3922ZM22.162 19.4807L25.4248 22.7448C24.7467 23.183 24.1693 23.7603 23.7311 24.4385L20.4682 21.1756C20.9649 20.5467 21.5334 19.9779 22.162 19.4807ZM20.4682 33.8244L23.7311 30.5604C24.1697 31.2386 24.7474 31.816 25.426 32.2541L22.162 35.5181C21.5334 35.0214 20.965 34.4529 20.4682 33.8244ZM25.5424 34.6067V37.2829C24.8874 37.0853 24.254 36.822 23.652 36.4971L25.5424 34.6067ZM27.2885 37.6449V33.0282C28.0779 33.1993 28.8948 33.1993 29.6842 33.0282V37.6449C28.8883 37.7382 28.0843 37.7382 27.2885 37.6449ZM31.4303 34.6067L33.3207 36.4971C32.7187 36.8221 32.0853 37.0853 31.4303 37.2829V34.6067ZM34.8096 35.517L31.5467 32.2541C32.2248 31.8158 32.8021 31.2385 33.2404 30.5604L36.5033 33.8232C36.0065 34.4517 35.4381 35.0202 34.8096 35.517Z" fill="black"/>
<path id="Vector_2" d="M55.0469 25.3418C54.7507 25.0666 54.4012 24.8551 54.0199 24.7204C53.6387 24.5856 53.2339 24.5305 52.8305 24.5584L45.9648 25.0426C45.5495 22.0784 44.3834 19.2695 42.5774 16.8825L47.7738 12.3717C48.2352 11.9723 48.5614 11.4395 48.7074 10.847C48.8535 10.2544 48.8122 9.63113 48.5893 9.06299C48.3664 8.49486 47.9728 8.00981 47.4627 7.67466C46.9527 7.33952 46.3513 7.17076 45.7413 7.19163C45.3373 7.20662 44.9406 7.30434 44.5758 7.47873C44.211 7.65313 43.8858 7.90049 43.6204 8.20553L39.1026 13.4089C36.7161 11.603 33.9075 10.437 30.9437 10.0215L31.4268 3.16511C31.4704 2.55659 31.3244 1.94949 31.0089 1.42738C30.6933 0.90526 30.2236 0.493793 29.6645 0.249608C29.1054 0.0054234 28.4844 -0.0594739 27.8869 0.0638485C27.2894 0.187171 26.7449 0.49265 26.3281 0.938241C26.0528 1.23462 25.8412 1.58434 25.7065 1.96577C25.5717 2.34721 25.5167 2.75223 25.5447 3.15579L26.0278 10.0203C23.064 10.4359 20.2555 11.6019 17.8688 13.4078L13.3522 8.2067C13.0867 7.90151 12.7614 7.65407 12.3963 7.47967C12.0313 7.30527 11.6344 7.20763 11.2301 7.19279C10.8258 7.17903 10.423 7.24837 10.0466 7.39654C9.67016 7.54471 9.32814 7.76855 9.0417 8.0542C8.75589 8.34079 8.53197 8.68299 8.3838 9.05963C8.23563 9.43627 8.16636 9.83932 8.18028 10.2438C8.20822 11.0587 8.57607 11.8328 9.19302 12.3682L14.3941 16.8848C12.5883 19.2711 11.4223 22.0792 11.0066 25.0426L4.14329 24.5596C3.73975 24.5318 3.3348 24.587 2.9534 24.7217C2.57201 24.8564 2.22226 25.0679 1.92573 25.343C1.63003 25.6192 1.39411 25.9532 1.23254 26.3242C1.07096 26.6952 0.987167 27.0953 0.986328 27.5C0.986328 28.3148 1.32856 29.0994 1.9234 29.6559C2.22006 29.9316 2.57011 30.1436 2.95192 30.2788C3.33374 30.4139 3.73921 30.4693 4.14329 30.4416L11.0078 29.9574C11.4232 32.9216 12.5892 35.7305 14.3953 38.1175L9.19186 42.6329C8.88689 42.8986 8.63966 43.224 8.46547 43.589C8.29127 43.954 8.19381 44.3508 8.17912 44.755C8.15002 45.5699 8.46432 46.3684 9.04053 46.9458C9.32706 47.2313 9.66909 47.4551 10.0455 47.6033C10.4219 47.7514 10.8247 47.8208 11.229 47.8072C12.0438 47.7781 12.8179 47.4091 13.3534 46.7945L17.87 41.5911C20.2566 43.3969 23.0651 44.563 26.029 44.9785L25.5447 51.843C25.5167 52.2466 25.5717 52.6516 25.7065 53.0331C25.8412 53.4145 26.0528 53.7642 26.3281 54.0606C26.6045 54.3565 26.9386 54.5925 27.3098 54.7541C27.681 54.9157 28.0815 54.9994 28.4863 55C29.3012 55 30.0858 54.6578 30.6422 54.0629C30.9179 53.7663 31.13 53.4162 31.2651 53.0344C31.4002 52.6526 31.4557 52.2471 31.4279 51.843L30.9437 44.9785C33.9761 44.5536 36.764 43.3558 39.1026 41.5911L43.6146 46.7875C43.8899 47.1082 44.2314 47.3655 44.6156 47.5417C44.9998 47.7179 45.4176 47.8089 45.8403 47.8084H45.8473C46.6342 47.8084 47.3745 47.5022 47.931 46.9458C48.217 46.6591 48.4412 46.3167 48.5895 45.9399C48.7379 45.5631 48.8073 45.1598 48.7935 44.755C48.7787 44.351 48.6811 43.9544 48.507 43.5896C48.3328 43.2248 48.0856 42.8996 47.7808 42.6341L42.5774 38.1163C44.3833 35.7297 45.5494 32.9212 45.9648 29.9574L52.8212 30.4416C53.4299 30.4853 54.0371 30.3392 54.5593 30.0235C55.0816 29.7078 55.493 29.2379 55.7371 28.6786C55.9812 28.1193 56.0459 27.4981 55.9223 26.9005C55.7987 26.3029 55.4929 25.7584 55.0469 25.3418ZM44.9393 9.34981C45.0468 9.22496 45.1791 9.12384 45.3278 9.0529C45.4765 8.98195 45.6384 8.94273 45.803 8.93773C46.0518 8.92844 46.2974 8.9966 46.5058 9.13282C46.7142 9.26904 46.8752 9.4666 46.9666 9.69822C47.0579 9.92984 47.0751 10.1841 47.0158 10.4259C46.9565 10.6677 46.8235 10.8852 46.6353 11.0482L41.4576 15.5438C41.1328 15.1911 40.794 14.8535 40.4425 14.5288L44.9393 9.34981ZM27.2862 3.0324C27.2737 2.86794 27.2956 2.70268 27.3505 2.54715C27.4054 2.39162 27.4921 2.24924 27.6051 2.12908C27.7748 1.94758 27.9965 1.82303 28.2397 1.77252C28.483 1.72201 28.736 1.74803 28.9639 1.84699C29.1918 1.94595 29.3834 2.11302 29.5126 2.32526C29.6418 2.5375 29.7021 2.78451 29.6853 3.0324L29.2046 9.8655C28.7259 9.8461 28.2467 9.8461 27.7681 9.8655L27.2862 3.0324ZM10.3373 11.047C10.2121 10.939 10.1107 10.8061 10.0395 10.6568C9.96841 10.5075 9.92908 10.3451 9.92406 10.1798C9.91242 9.84221 10.037 9.52559 10.2756 9.28812C10.392 9.17085 10.5314 9.07905 10.6851 9.01853C10.8388 8.95802 11.0034 8.9301 11.1685 8.93657C11.506 8.94821 11.8133 9.09488 12.0345 9.34981L16.529 14.5264C16.1771 14.851 15.8385 15.1896 15.5139 15.5415L10.3385 11.0482L10.3373 11.047ZM4.02222 28.7002C3.68464 28.7234 3.36336 28.6094 3.11541 28.3789C2.99432 28.2669 2.89784 28.1309 2.83211 27.9796C2.76638 27.8283 2.73283 27.665 2.7336 27.5C2.7336 27.1624 2.86979 26.8493 3.11774 26.62C3.2378 26.5068 3.38014 26.4198 3.53567 26.3647C3.6912 26.3096 3.85651 26.2875 4.02106 26.2998L10.8518 26.7818C10.8326 27.2604 10.8326 27.7396 10.8518 28.2182L4.02222 28.7002ZM12.0357 45.649C11.9276 45.774 11.7946 45.8752 11.6453 45.9461C11.4961 46.0171 11.3337 46.0562 11.1685 46.0611C10.832 46.0727 10.5154 45.9482 10.2768 45.7107C10.1593 45.5943 10.0674 45.4547 10.0069 45.3007C9.94633 45.1468 9.91853 44.982 9.92523 44.8167C9.93687 44.4791 10.0835 44.173 10.3385 43.9518L15.5163 39.4562C15.8408 39.808 16.1795 40.1467 16.5313 40.4712L12.0334 45.6479L12.0357 45.649ZM29.6876 51.9653C29.7109 52.3028 29.5969 52.6241 29.3664 52.8709C29.2545 52.9922 29.1185 53.0889 28.9672 53.1549C28.8159 53.2208 28.6525 53.2545 28.4875 53.2539C28.1499 53.2539 27.8368 53.1177 27.6075 52.8698C27.4944 52.7496 27.4075 52.6073 27.3524 52.4518C27.2973 52.2962 27.2751 52.131 27.2873 51.9664L27.7693 45.1333C28.2479 45.1525 28.7271 45.1525 29.2057 45.1333L29.6876 51.9653ZM46.6365 43.953C46.7616 44.0604 46.8629 44.1926 46.9341 44.3413C47.0052 44.49 47.0446 44.6519 47.0498 44.8167C47.0614 45.1543 46.9368 45.4721 46.6982 45.7107C46.5869 45.8226 46.4544 45.9113 46.3086 45.9716C46.1627 46.032 46.0063 46.0628 45.8484 46.0623H45.8449C45.6733 46.0625 45.5037 46.0257 45.3476 45.9544C45.1915 45.883 45.0526 45.7789 44.9405 45.649L40.4437 40.4701C40.7952 40.1465 41.134 39.8066 41.4587 39.455L46.6377 43.953H46.6365ZM28.4863 43.4035C19.7174 43.4035 12.5828 36.2689 12.5828 27.4988C12.5828 18.7287 19.7162 11.5953 28.4852 11.5953C37.2541 11.5953 44.3899 18.7299 44.3899 27.4988C44.3899 36.2678 37.2553 43.4035 28.4852 43.4035H28.4863ZM53.0412 28.7025C53.0156 28.7025 52.99 28.7025 52.9551 28.7002L46.122 28.2182C46.1414 27.7396 46.1414 27.2604 46.122 26.7818L52.9551 26.2998C53.2903 26.2766 53.6116 26.3895 53.8584 26.6188C54.0348 26.7834 54.1577 26.9972 54.2111 27.2325C54.2645 27.4678 54.2459 27.7137 54.1578 27.9383C54.0697 28.1629 53.9162 28.3559 53.7171 28.4921C53.518 28.6284 53.2825 28.7017 53.0412 28.7025Z" fill="black"/>
</g>
<defs>
<clipPath id="clip0_5_39">
<rect width="55" height="55" fill="white" transform="translate(0.986328)"/>
</clipPath>
</defs>
</svg>
