<svg width="56" height="56" viewBox="0 0 56 56" fill="none" xmlns="http://www.w3.org/2000/svg">
<g id="Image [MuiBox-root]" clip-path="url(#clip0_5_142)">
<path id="Vector" d="M38.8379 8.11328H36.0879C34.7881 8.11328 33.7031 9.03711 33.4453 10.2617C25.1821 14.202 16.3523 16.8227 7.27737 18.0283C6.50393 18.1357 5.84865 18.5439 5.41897 19.1348H3.01272C2.29762 19.1348 1.6118 19.4188 1.10615 19.9245C0.6005 20.4301 0.316428 21.116 0.316428 21.8311V27.3418C0.315013 27.6968 0.383711 28.0486 0.518579 28.3769C0.653447 28.7053 0.85183 29.0038 1.10234 29.2553C1.35286 29.5068 1.65057 29.7064 1.9784 29.8426C2.30624 29.9787 2.65773 30.0488 3.01272 30.0488H5.41897C5.84865 30.6289 6.50393 31.0479 7.27737 31.1553L7.68557 31.209L11.918 46.4414C12.2403 47.6016 13.3145 48.418 14.5176 48.418H20.4688C20.6967 48.418 20.9153 48.3274 21.0764 48.1663C21.2376 48.0051 21.3281 47.7865 21.3281 47.5586C21.3281 47.3307 21.2376 47.1121 21.0764 46.9509C20.9153 46.7898 20.6967 46.6992 20.4688 46.6992H20.1895L16.3545 32.8633C25.378 35.0654 31.8233 38.127 33.4346 38.9219C33.5625 39.5284 33.8947 40.0727 34.3757 40.4637C34.8567 40.8548 35.4573 41.0689 36.0772 41.0703H38.8272C39.1813 41.0703 39.5319 41.0006 39.859 40.8651C40.1861 40.7296 40.4834 40.531 40.7337 40.2806C40.9841 40.0302 41.1827 39.733 41.3182 39.4058C41.4537 39.0787 41.5235 38.7281 41.5235 38.374V10.8096C41.5206 10.0982 41.2368 9.41675 40.7338 8.91373C40.2307 8.4107 39.5493 8.12685 38.8379 8.12402V8.11328ZM4.91408 28.3193H3.00197C2.46486 28.3193 2.03518 27.8896 2.03518 27.3525V21.8203C2.03518 21.2832 2.46486 20.8535 3.00197 20.8535H4.90334V28.3086L4.91408 28.3193ZM18.417 46.6885H14.5176C14.0879 46.6885 13.6905 46.3984 13.5723 45.9795L9.55471 31.4775C11.1999 31.7449 12.837 32.0601 14.4639 32.4229L18.4278 46.6992L18.417 46.6885ZM39.8155 38.374C39.8155 38.9111 39.3858 39.3408 38.8487 39.3408H36.0879C35.5508 39.3408 35.1104 38.9111 35.1104 38.374V18.168C35.1104 17.94 35.0198 17.7215 34.8587 17.5603C34.6975 17.3991 34.4789 17.3086 34.251 17.3086C34.0231 17.3086 33.8045 17.3991 33.6433 17.5603C33.4822 17.7215 33.3916 17.94 33.3916 18.168V36.9883C25.1872 33.1955 16.4608 30.6536 7.50295 29.4473C7.00881 29.3828 6.63283 28.9639 6.63283 28.4805V20.7031C6.63283 20.2197 7.00881 19.8008 7.49221 19.7363C16.45 18.5298 25.1764 15.988 33.3809 12.1953V14.4834C33.3809 14.7113 33.4714 14.9299 33.6326 15.0911C33.7938 15.2522 34.0123 15.3428 34.2403 15.3428C34.4682 15.3428 34.6868 15.2522 34.8479 15.0911C35.0091 14.9299 35.0996 14.7113 35.0996 14.4834V10.8203C35.0996 10.2832 35.5401 9.83203 36.0879 9.83203H38.8379C39.375 9.83203 39.8155 10.2725 39.8155 10.8096V38.374ZM54.4571 23.7324H45.2725C45.0446 23.7324 44.826 23.823 44.6648 23.9841C44.5037 24.1453 44.4131 24.3639 44.4131 24.5918C44.4131 24.8197 44.5037 25.0383 44.6648 25.1995C44.826 25.3606 45.0446 25.4512 45.2725 25.4512H54.4571C54.685 25.4512 54.9036 25.3606 55.0647 25.1995C55.2259 25.0383 55.3164 24.8197 55.3164 24.5918C55.3164 24.3639 55.2259 24.1453 55.0647 23.9841C54.9036 23.823 54.685 23.7324 54.4571 23.7324ZM52.4912 15.0635C52.4014 14.8541 52.2322 14.689 52.0207 14.6044C51.8092 14.5198 51.5727 14.5227 51.3633 14.6123L50.4395 15.0098C50.3325 15.0519 50.2351 15.1151 50.153 15.1956C50.0709 15.2761 50.0058 15.3723 49.9616 15.4784C49.9173 15.5845 49.8948 15.6984 49.8953 15.8134C49.8959 15.9284 49.9195 16.0421 49.9648 16.1478C50.0101 16.2534 50.0761 16.349 50.159 16.4287C50.2419 16.5084 50.3399 16.5706 50.4473 16.6117C50.5546 16.6529 50.6692 16.672 50.7841 16.6681C50.899 16.6642 51.0119 16.6372 51.1162 16.5889L52.0401 16.2021C52.145 16.1577 52.2401 16.0929 52.3198 16.0113C52.3994 15.9298 52.4621 15.8333 52.5041 15.7273C52.5461 15.6213 52.5666 15.5081 52.5644 15.3941C52.5621 15.2801 52.5373 15.1677 52.4912 15.0635ZM48.8174 16.6426C48.7276 16.4332 48.5583 16.2681 48.3468 16.1835C48.1353 16.0989 47.8989 16.1018 47.6895 16.1914L44.9287 17.373C44.8218 17.4152 44.7244 17.4784 44.6423 17.5589C44.5602 17.6394 44.4951 17.7356 44.4508 17.8417C44.4066 17.9478 44.384 18.0617 44.3846 18.1767C44.3852 18.2917 44.4088 18.4054 44.4541 18.511C44.4994 18.6167 44.5654 18.7122 44.6483 18.7919C44.7311 18.8716 44.8292 18.9339 44.9365 18.975C45.0439 19.0162 45.1584 19.0353 45.2733 19.0314C45.3882 19.0275 45.5012 19.0005 45.6055 18.9521L48.3662 17.7705C48.5756 17.6807 48.7407 17.5114 48.8253 17.2999C48.9099 17.0884 48.907 16.852 48.8174 16.6426ZM52.0401 32.9922L51.1162 32.5947C51.0119 32.5464 50.899 32.5194 50.7841 32.5155C50.6692 32.5116 50.5546 32.5307 50.4473 32.5718C50.3399 32.613 50.2419 32.6752 50.159 32.7549C50.0761 32.8346 50.0101 32.9301 49.9648 33.0358C49.9195 33.1415 49.8959 33.2552 49.8953 33.3702C49.8948 33.4851 49.9173 33.5991 49.9616 33.7052C50.0058 33.8113 50.0709 33.9074 50.153 33.9879C50.2351 34.0684 50.3325 34.1317 50.4395 34.1738L51.3633 34.5713C51.5727 34.6609 51.8092 34.6638 52.0207 34.5792C52.2322 34.4946 52.4014 34.3295 52.4912 34.1201C52.5373 34.0159 52.5621 33.9035 52.5644 33.7895C52.5666 33.6755 52.5461 33.5623 52.5041 33.4563C52.4621 33.3503 52.3994 33.2538 52.3198 33.1723C52.2401 33.0907 52.145 33.0259 52.0401 32.9814V32.9922ZM48.3662 31.4131L45.6055 30.2314C45.3975 30.1494 45.1658 30.1517 44.9594 30.2378C44.7531 30.3238 44.5884 30.4869 44.5004 30.6924C44.4123 30.8979 44.4078 31.1296 44.4878 31.3384C44.5677 31.5471 44.7259 31.7165 44.9287 31.8105L47.6895 32.9922C47.8989 33.0818 48.1353 33.0847 48.3468 33.0001C48.5583 32.9155 48.7276 32.7504 48.8174 32.541C48.907 32.3316 48.9099 32.0952 48.8253 31.8837C48.7407 31.6722 48.5756 31.5029 48.3662 31.4131Z" fill="black"/>
</g>
<defs>
<clipPath id="clip0_5_142">
<rect width="55" height="55" fill="white" transform="translate(0.316406 0.765625)"/>
</clipPath>
</defs>
</svg>
